<mxfile host="65bd71144e">
    <diagram id="_JL1wmGrsv6afh2xFdnU" name="Page-1">
        <mxGraphModel dx="972" dy="267" grid="1" gridSize="10" guides="1" tooltips="1" connect="1" arrows="1" fold="1" page="1" pageScale="1" pageWidth="850" pageHeight="1100" math="0" shadow="0">
            <root>
                <mxCell id="0"/>
                <mxCell id="1" parent="0"/>
                <mxCell id="8" style="edgeStyle=none;html=1;entryX=0;entryY=0.5;entryDx=0;entryDy=0;" edge="1" parent="1" source="2" target="4">
                    <mxGeometry relative="1" as="geometry"/>
                </mxCell>
                <mxCell id="2" value="&lt;div style=&quot;color: rgb(255 , 255 , 255) ; background-color: rgb(25 , 53 , 73) ; font-family: &amp;#34;cascadia code&amp;#34; , &amp;#34;menlo&amp;#34; , &amp;#34;monaco&amp;#34; , &amp;#34;courier new&amp;#34; , monospace , &amp;#34;consolas&amp;#34; , &amp;#34;courier new&amp;#34; , monospace ; font-size: 15px ; line-height: 20px&quot;&gt;&lt;span style=&quot;color: #ffc600&quot;&gt;let&lt;/span&gt;&lt;span style=&quot;color: #9effff&quot;&gt; &lt;/span&gt;isLoggedIn&lt;span style=&quot;color: #9effff&quot;&gt; &lt;/span&gt;&lt;span style=&quot;color: #ff9d00&quot;&gt;=&lt;/span&gt;&lt;span style=&quot;color: #9effff&quot;&gt; &lt;/span&gt;&lt;span style=&quot;color: #ff628c&quot;&gt;true&lt;/span&gt;&lt;span style=&quot;color: #e1efff&quot;&gt;;&lt;/span&gt;&lt;/div&gt;" style="rounded=0;whiteSpace=wrap;html=1;" vertex="1" parent="1">
                    <mxGeometry x="40" y="70" width="270" height="50" as="geometry"/>
                </mxCell>
                <mxCell id="9" style="edgeStyle=none;html=1;entryX=0;entryY=0.5;entryDx=0;entryDy=0;" edge="1" parent="1" source="3" target="5">
                    <mxGeometry relative="1" as="geometry"/>
                </mxCell>
                <mxCell id="3" value="&#10;&#10;&lt;div style=&quot;color: rgb(255, 255, 255); background-color: rgb(25, 53, 73); font-family: &amp;quot;cascadia code&amp;quot;, menlo, monaco, &amp;quot;courier new&amp;quot;, monospace, consolas, &amp;quot;courier new&amp;quot;, monospace; font-weight: 300; font-size: 15px; line-height: 20px;&quot;&gt;&lt;div&gt;&lt;span style=&quot;color: #ffffff&quot;&gt;isLoggedIn&lt;/span&gt;&lt;span style=&quot;color: #9effff&quot;&gt; &lt;/span&gt;&lt;span style=&quot;color: #ff9d00&quot;&gt;=&lt;/span&gt;&lt;span style=&quot;color: #9effff&quot;&gt; &lt;/span&gt;&lt;span style=&quot;color: #ff628c&quot;&gt;false&lt;/span&gt;&lt;span style=&quot;color: #e1efff&quot;&gt;;&lt;/span&gt;&lt;/div&gt;&lt;/div&gt;&#10;&#10;" style="rounded=0;whiteSpace=wrap;html=1;" vertex="1" parent="1">
                    <mxGeometry x="40" y="120" width="270" height="50" as="geometry"/>
                </mxCell>
                <mxCell id="4" value="&lt;div style=&quot;color: rgb(255 , 255 , 255) ; background-color: rgb(25 , 53 , 73) ; font-family: &amp;#34;cascadia code&amp;#34; , &amp;#34;menlo&amp;#34; , &amp;#34;monaco&amp;#34; , &amp;#34;courier new&amp;#34; , monospace , &amp;#34;consolas&amp;#34; , &amp;#34;courier new&amp;#34; , monospace ; font-size: 15px ; line-height: 20px&quot;&gt;&lt;div style=&quot;font-family: &amp;#34;cascadia code&amp;#34; , &amp;#34;menlo&amp;#34; , &amp;#34;monaco&amp;#34; , &amp;#34;courier new&amp;#34; , monospace , &amp;#34;consolas&amp;#34; , &amp;#34;courier new&amp;#34; , monospace ; line-height: 20px&quot;&gt;&lt;span style=&quot;color: #ffc600&quot;&gt;const&lt;/span&gt;&lt;span style=&quot;color: #9effff&quot;&gt; &lt;/span&gt;&lt;span style=&quot;color: #e1efff&quot;&gt;[&lt;/span&gt;isLoggedInState&lt;span style=&quot;color: #e1efff&quot;&gt;,&lt;/span&gt;&lt;span style=&quot;color: #9effff&quot;&gt; &lt;/span&gt;&lt;span style=&quot;color: #ffc600&quot;&gt;setIsLoggedInState&lt;/span&gt;&lt;span style=&quot;color: #e1efff&quot;&gt;]&lt;/span&gt;&lt;span style=&quot;color: #9effff&quot;&gt; &lt;/span&gt;&lt;span style=&quot;color: #ff9d00&quot;&gt;=&lt;/span&gt;&lt;span style=&quot;color: #9effff&quot;&gt; &lt;/span&gt;&lt;span style=&quot;color: #ffc600&quot;&gt;useState&lt;/span&gt;&lt;span style=&quot;color: #e1efff&quot;&gt;(&lt;/span&gt;&lt;span style=&quot;color: #ff628c&quot;&gt;true&lt;/span&gt;&lt;span style=&quot;color: #e1efff&quot;&gt;);&lt;/span&gt;&lt;/div&gt;&lt;/div&gt;" style="rounded=0;whiteSpace=wrap;html=1;" vertex="1" parent="1">
                    <mxGeometry x="360" y="70" width="440" height="50" as="geometry"/>
                </mxCell>
                <mxCell id="5" value="&lt;div style=&quot;color: rgb(255 , 255 , 255) ; background-color: rgb(25 , 53 , 73) ; font-family: &amp;#34;cascadia code&amp;#34; , &amp;#34;menlo&amp;#34; , &amp;#34;monaco&amp;#34; , &amp;#34;courier new&amp;#34; , monospace , &amp;#34;consolas&amp;#34; , &amp;#34;courier new&amp;#34; , monospace ; font-size: 15px ; line-height: 20px&quot;&gt;&lt;div style=&quot;font-family: &amp;#34;cascadia code&amp;#34; , &amp;#34;menlo&amp;#34; , &amp;#34;monaco&amp;#34; , &amp;#34;courier new&amp;#34; , monospace , &amp;#34;consolas&amp;#34; , &amp;#34;courier new&amp;#34; , monospace ; line-height: 20px&quot;&gt;&lt;div style=&quot;font-family: &amp;#34;cascadia code&amp;#34; , &amp;#34;menlo&amp;#34; , &amp;#34;monaco&amp;#34; , &amp;#34;courier new&amp;#34; , monospace , &amp;#34;consolas&amp;#34; , &amp;#34;courier new&amp;#34; , monospace ; line-height: 20px&quot;&gt;&lt;span style=&quot;color: #ffc600&quot;&gt;setIsLoggedInState&lt;/span&gt;&lt;span style=&quot;color: #e1efff&quot;&gt;(&lt;/span&gt;&lt;span style=&quot;color: #ff628c&quot;&gt;false&lt;/span&gt;&lt;span style=&quot;color: #e1efff&quot;&gt;);&lt;/span&gt;&lt;/div&gt;&lt;/div&gt;&lt;/div&gt;" style="rounded=0;whiteSpace=wrap;html=1;" vertex="1" parent="1">
                    <mxGeometry x="360" y="120" width="440" height="50" as="geometry"/>
                </mxCell>
                <mxCell id="6" value="&lt;div style=&quot;color: rgb(255 , 255 , 255) ; background-color: rgb(25 , 53 , 73) ; font-family: &amp;#34;cascadia code&amp;#34; , &amp;#34;menlo&amp;#34; , &amp;#34;monaco&amp;#34; , &amp;#34;courier new&amp;#34; , monospace , &amp;#34;consolas&amp;#34; , &amp;#34;courier new&amp;#34; , monospace ; font-size: 15px ; line-height: 20px&quot;&gt;&lt;div style=&quot;font-family: &amp;#34;cascadia code&amp;#34; , &amp;#34;menlo&amp;#34; , &amp;#34;monaco&amp;#34; , &amp;#34;courier new&amp;#34; , monospace , &amp;#34;consolas&amp;#34; , &amp;#34;courier new&amp;#34; , monospace ; line-height: 20px&quot;&gt;&lt;div style=&quot;font-family: &amp;#34;cascadia code&amp;#34; , &amp;#34;menlo&amp;#34; , &amp;#34;monaco&amp;#34; , &amp;#34;courier new&amp;#34; , monospace , &amp;#34;consolas&amp;#34; , &amp;#34;courier new&amp;#34; , monospace ; line-height: 20px&quot;&gt;&lt;span style=&quot;color: #ff9d00&quot;&gt;import&lt;/span&gt;&lt;span style=&quot;color: #9effff&quot;&gt; &lt;/span&gt;&lt;span style=&quot;color: #e1efff&quot;&gt;{&lt;/span&gt;&lt;span style=&quot;color: #9effff&quot;&gt; &lt;/span&gt;&lt;span style=&quot;color: #e1efff&quot;&gt;useState&lt;/span&gt;&lt;span style=&quot;color: #9effff&quot;&gt; &lt;/span&gt;&lt;span style=&quot;color: #e1efff&quot;&gt;}&lt;/span&gt;&lt;span style=&quot;color: #9effff&quot;&gt; &lt;/span&gt;&lt;span style=&quot;color: #ff9d00&quot;&gt;from&lt;/span&gt;&lt;span style=&quot;color: #9effff&quot;&gt; &lt;/span&gt;&lt;span style=&quot;color: #92fc79&quot;&gt;'&lt;/span&gt;&lt;span style=&quot;color: #a5ff90&quot;&gt;react&lt;/span&gt;&lt;span style=&quot;color: #92fc79&quot;&gt;'&lt;/span&gt;&lt;span style=&quot;color: #e1efff&quot;&gt;;&lt;/span&gt;&lt;/div&gt;&lt;/div&gt;&lt;/div&gt;" style="rounded=0;whiteSpace=wrap;html=1;" vertex="1" parent="1">
                    <mxGeometry x="360" y="20" width="440" height="50" as="geometry"/>
                </mxCell>
                <mxCell id="7" value="&lt;div style=&quot;background-color: rgb(25 , 53 , 73) ; font-family: &amp;#34;cascadia code&amp;#34; , &amp;#34;menlo&amp;#34; , &amp;#34;monaco&amp;#34; , &amp;#34;courier new&amp;#34; , monospace , &amp;#34;consolas&amp;#34; , &amp;#34;courier new&amp;#34; , monospace ; font-size: 15px ; line-height: 20px&quot;&gt;&lt;div style=&quot;font-family: &amp;#34;cascadia code&amp;#34; , &amp;#34;menlo&amp;#34; , &amp;#34;monaco&amp;#34; , &amp;#34;courier new&amp;#34; , monospace , &amp;#34;consolas&amp;#34; , &amp;#34;courier new&amp;#34; , monospace ; line-height: 20px&quot;&gt;&lt;div style=&quot;font-family: &amp;#34;cascadia code&amp;#34; , &amp;#34;menlo&amp;#34; , &amp;#34;monaco&amp;#34; , &amp;#34;courier new&amp;#34; , monospace , &amp;#34;consolas&amp;#34; , &amp;#34;courier new&amp;#34; , monospace ; line-height: 20px&quot;&gt;&lt;font color=&quot;#ffc600&quot;&gt;Visada is naujo paleidzia komponento funkcija&lt;/font&gt;&lt;/div&gt;&lt;/div&gt;&lt;/div&gt;" style="rounded=0;whiteSpace=wrap;html=1;" vertex="1" parent="1">
                    <mxGeometry x="360" y="170" width="440" height="50" as="geometry"/>
                </mxCell>
            </root>
        </mxGraphModel>
    </diagram>
</mxfile>